<svg t="1677573357823" class="icon" viewBox="0 0 1170 1024" version="1.1" xmlns="http://www.w3.org/2000/svg" p-id="1944"
  width="200" height="200">
  <path
    d="M489.419154 180.937143c0-52.754286 42.861714-160.786286 95.725715-160.786286 52.873143 0 95.725714 108.022857 95.725714 160.786286 0 52.763429-42.861714 95.542857-95.725714 95.542857-52.864 0-95.725714-42.779429-95.725715-95.542857z"
    fill="#FF6376" p-id="1945"></path>
  <path
    d="M689.528869 360.704c58.761143 0 106.404571-47.542857 106.404571-106.194286s-47.643429-106.194286-106.404571-106.194285H480.760869c-58.761143 0-106.395429 47.542857-106.395429 106.194285s47.634286 106.194286 106.404571 106.194286h208.758858z"
    fill="#C3DDF7" p-id="1946"></path>
  <path
    d="M975.096869 351.451429c-5.558857-19.510857-26.742857-35.474286-47.067429-35.474286H242.26944c-20.324571 0-41.508571 15.972571-47.076571 35.474286L19.823726 966.381714c-5.577143 19.510857 6.509714 35.474286 26.834285 35.474286h1076.982858c20.324571 0 32.402286-15.963429 26.834285-35.474286L975.096869 351.451429z"
    fill="#FFD553" p-id="1947"></path>
  <path
    d="M1150.475154 966.381714l-16.512-57.901714H36.335726l-16.521143 57.901714c-5.558857 19.510857 6.518857 35.474286 26.843428 35.474286h1076.982858c20.324571 0 32.402286-15.963429 26.834285-35.474286z"
    fill="#FDBA55" p-id="1948"></path>
  <path
    d="M1094.082011 544.173714l-59.757714-209.554285c-13.028571-45.668571-58.733714-80.109714-106.313143-80.109715H242.26944c-47.579429 0-93.293714 34.441143-106.313143 80.118857L76.198583 544.173714c-9.316571 32.649143 9.654857 66.651429 42.377143 75.949715a61.622857 61.622857 0 0 0 16.896 2.368c26.816 0 51.501714-17.636571 59.2-44.662858l25.197714-88.338285 0.018286 0.027428a43.465143 43.465143 0 0 1 41.755428-31.296 43.419429 43.419429 0 0 1 43.465143 43.373715v59.401142c0 33.947429 27.584 61.476571 61.595429 61.476572s61.595429-27.52 61.595428-61.476572v-59.401142c0-26.24 21.321143-47.533714 47.625143-47.533715a47.579429 47.579429 0 0 1 47.625143 47.542857v59.392c0 33.947429 27.574857 61.476571 61.595429 61.476572 34.011429 0 61.595429-27.52 61.595428-61.476572v-59.401142c0-26.24 21.321143-47.533714 47.625143-47.533715a47.579429 47.579429 0 0 1 47.625143 47.542857v59.392c0 33.947429 27.574857 61.476571 61.595428 61.476572 34.011429 0 61.595429-27.52 61.595429-61.476572v-59.401142a43.419429 43.419429 0 0 1 43.456-43.373715 43.474286 43.474286 0 0 1 41.755429 31.296l0.027428-0.027428 25.188572 88.338285c7.716571 27.026286 32.393143 44.653714 59.209142 44.662858a61.714286 61.714286 0 0 0 16.896-2.368c32.713143-9.289143 51.684571-43.300571 42.368-75.949715z"
    fill="#866539" p-id="1949"></path>
  <path d="M293.506011 728.137143a33.453714 33.389714 0 1 0 66.907429 0 33.453714 33.389714 0 1 0-66.907429 0Z"
    fill="#3F4963" p-id="1950"></path>
  <path d="M809.903726 728.137143a33.453714 33.389714 0 1 0 66.907428 0 33.453714 33.389714 0 1 0-66.907428 0Z"
    fill="#3F4963" p-id="1951"></path>
  <path
    d="M362.754011 844.854857h-71.588571a18.468571 18.468571 0 0 1-18.468571-18.441143c0-10.185143 8.265143-18.441143 18.468571-18.441143h71.588571a18.468571 18.468571 0 0 1 18.468572 18.441143 18.459429 18.459429 0 0 1-18.468572 18.441143zM879.142583 844.854857h-71.588572a18.468571 18.468571 0 0 1-18.468571-18.441143 18.468571 18.468571 0 0 1 18.468571-18.441143h71.588572a18.468571 18.468571 0 0 1 18.477714 18.441143 18.468571 18.468571 0 0 1-18.477714 18.441143z"
    fill="#FF6376" p-id="1952"></path>
  <path
    d="M543.270583 821.778286c-33.298286 0-60.379429-27.026286-60.379429-60.251429a18.468571 18.468571 0 0 1 18.477715-18.441143 18.468571 18.468571 0 0 1 18.477714 18.441143 23.414857 23.414857 0 0 0 46.829714 0c0-10.185143 8.274286-18.441143 18.477714-18.441143a18.468571 18.468571 0 0 1 18.477715 18.441143c0 33.225143-27.081143 60.251429-60.370286 60.251429z"
    fill="#3F4963" p-id="1953"></path>
  <path
    d="M627.046583 821.778286c-33.28 0-60.370286-27.026286-60.370286-60.251429a18.468571 18.468571 0 0 1 18.477714-18.441143 18.468571 18.468571 0 0 1 18.477715 18.441143 23.414857 23.414857 0 0 0 46.829714 0 18.468571 18.468571 0 0 1 18.468571-18.441143 18.468571 18.468571 0 0 1 18.486858 18.441143c0 33.225143-27.081143 60.251429-60.370286 60.251429z"
    fill="#3F4963" p-id="1954"></path>
  <path
    d="M326.959726 694.765714a33.426286 33.426286 0 0 0-33.462857 33.380572 33.426286 33.426286 0 0 0 33.462857 33.398857 33.426286 33.426286 0 0 0 33.462857-33.398857 33.426286 33.426286 0 0 0-33.462857-33.389715z m341.979428 48.32a18.459429 18.459429 0 0 0-18.477714 18.441143 23.414857 23.414857 0 0 1-46.829714 0 18.459429 18.459429 0 0 0-18.468572-18.441143 18.459429 18.459429 0 0 0-18.486857 18.441143 23.414857 23.414857 0 0 1-46.820571 0 18.468571 18.468571 0 0 0-18.486857-18.441143 18.468571 18.468571 0 0 0-18.468572 18.441143c0 33.225143 27.081143 60.251429 60.361143 60.251429a60.214857 60.214857 0 0 0 41.892571-16.923429 60.205714 60.205714 0 0 0 41.892572 16.923429c33.28 0 60.370286-27.026286 60.370286-60.251429a18.459429 18.459429 0 0 0-18.477715-18.441143z m499.309715 218.249143l-94.290286-330.614857c31.625143-17.673143 48.246857-55.323429 37.897143-91.593143l-59.757715-209.554286c-15.204571-53.302857-68.544-93.504-124.086857-93.504H813.030583c-8.859429-59.382857-59.830857-105.188571-121.536-106.148571-7.396571-27.209143-19.273143-54.902857-32.969143-76.342857C636.838583 19.657143 611.476297 1.709714 585.154011 1.709714c-26.322286 0-51.693714 17.938286-73.380571 51.885715-13.696 21.430857-25.572571 49.124571-32.96 76.333714-61.705143 0.96-112.676571 46.765714-121.545143 106.148571H242.26944c-55.542857 0-108.891429 40.201143-124.086857 93.504L58.424869 539.126857c-10.349714 36.269714 6.281143 73.929143 37.915428 91.602286L2.040869 961.334857c-4.251429 14.912-1.792 29.933714 6.738285 41.216s22.336 17.746286 37.878857 17.746286h1076.973715c15.542857 0 29.348571-6.464 37.878857-17.737143 8.530286-11.291429 10.989714-26.313143 6.738286-41.225143zM585.144869 38.592c24.530286 0 53.147429 44.617143 67.84 91.282286H517.304869C531.99744 83.2 560.614583 38.582857 585.144869 38.582857zM480.770011 166.756571h208.758858c42.148571 0 77.44 29.750857 85.952 69.302858H394.808869c8.512-39.552 43.812571-69.302857 85.961142-69.302858zM93.963154 549.211429l59.766857-209.554286c10.843429-38.034286 48.914286-66.715429 88.539429-66.715429H928.002011c39.625143 0 77.696 28.681143 88.539429 66.724572l59.766857 209.554285a43.062857 43.062857 0 0 1-41.490286 54.820572v18.441143l-0.009142-18.441143a43.273143 43.273143 0 0 1-41.444572-31.268572l-25.188571-88.329142a17.051429 17.051429 0 0 0-0.411429-1.270858c-8.009143-25.618286-32.146286-43.392-59.136-43.392-34.157714 0-61.942857 27.730286-61.942857 61.814858v59.401142a43.126857 43.126857 0 0 1-86.226286 0v-59.401142c0-36.388571-29.659429-65.984-66.112-65.984-36.452571 0-66.102857 29.604571-66.102857 65.984v59.401142a43.126857 43.126857 0 0 1-86.235428 0v-59.401142c0-36.388571-29.650286-65.984-66.102858-65.984-36.452571 0-66.102857 29.604571-66.102857 65.984v59.401142a43.126857 43.126857 0 0 1-86.226285 0v-59.401142c0-34.093714-27.794286-61.824-61.952-61.824-26.989714 0-51.126857 17.782857-59.136 43.401142a18.249143 18.249143 0 0 0-0.411429 1.261715l-25.188571 88.338285a43.273143 43.273143 0 0 1-41.444572 31.268572 43.062857 43.062857 0 0 1-41.490286-54.829714z m1038.052572 431.104c-1.508571 1.993143-4.48 3.090286-8.374857 3.090285H46.658011c-3.894857 0-6.875429-1.097143-8.384-3.090285-1.508571-1.993143-1.746286-5.156571-0.676571-8.896l94.281143-330.624c1.188571 0.054857 2.386286 0.128 3.584 0.128 35.574857 0 67.227429-23.872 76.982857-58.057143l24.896-87.314286a17.645714 17.645714 0 0 0 0.292571-0.914286 24.987429 24.987429 0 0 1 48.996572 6.948572v59.401143c0 44.068571 35.913143 79.908571 80.064 79.908571 44.16 0 80.073143-35.84 80.073143-79.908571v-59.401143a29.156571 29.156571 0 0 1 58.294857 0v59.401143c0 44.068571 35.922286 79.908571 80.073143 79.908571 44.150857 0 80.073143-35.84 80.073143-79.908571v-59.401143a29.156571 29.156571 0 0 1 58.294857 0v59.401143c0 44.068571 35.913143 79.908571 80.073143 79.908571 44.150857 0 80.064-35.84 80.064-79.908571v-59.401143a24.987429 24.987429 0 0 1 48.996571-6.948572l0.283429 0.914286 24.905142 87.314286c9.746286 34.185143 41.408 58.057143 76.982858 58.057143h0.009142c1.197714 0 2.395429-0.073143 3.584-0.128l94.290286 330.624c1.078857 3.748571 0.832 6.902857-0.676571 8.896zM843.35744 694.756571a33.426286 33.426286 0 0 0-33.462857 33.389715 33.426286 33.426286 0 0 0 33.462857 33.398857 33.426286 33.426286 0 0 0 33.462857-33.398857 33.426286 33.426286 0 0 0-33.462857-33.389715z"
    fill="#000000" p-id="1955"></path>
</svg>